<svg xmlns="http://www.w3.org/2000/svg" id="a" width="652.6283" height="385.6662" viewBox="80 0 652.6283 385.6662" class="injected-svg ClassicGrid__ImageFile-sc-td9pmq-4 fNAcXv grid_media" xmlns:xlink="http://www.w3.org/1999/xlink">
	<path d="M203.62827,227.61183V21.06056c0-10.87598,8.84863-19.72412,19.72461-19.72412h409.55081c10.87598,0,19.72461,8.84814,19.72461,19.72412V227.61183c0,10.87598-8.84863,19.72461-19.72461,19.72461H223.35287c-10.87598,0-19.72461-8.84863-19.72461-19.72461ZM650.62823,21.06056c0-9.78876-7.93536-17.72412-17.72412-17.72412H223.35287c-9.78903,0-17.72461,7.93558-17.72461,17.72461V227.61183c0,9.78903,7.93558,17.72461,17.72461,17.72461H501.92343c82.12741,0,148.70486-66.57744,148.70486-148.70483V21.06056h-.00006Z" fill="#e6e6e6">
	</path>
	<g>
		<path d="M347.91473,38.90731H118.38117c-6.80601,0-12.34037,5.53432-12.34037,12.34033v84.3193c0,6.80602,5.53436,12.34038,12.34037,12.34038h229.53356c6.806,0,12.34036-5.53436,12.34036-12.34036V51.24764c0-6.80601-5.53436-12.34033-12.34036-12.34033Z" fill="#fff">
		</path>
		<path d="M347.91473,38.90731H118.38117c-6.80601,0-12.34037,5.53432-12.34037,12.34033v84.3193c0,6.80602,5.53436,12.34038,12.34037,12.34038h229.53356c6.806,0,12.34036-5.53436,12.34036-12.34036V51.24764c0-6.80601-5.53436-12.34033-12.34036-12.34033Zm11.04276,96.65963c0,6.09233-4.95041,11.04276-11.04276,11.04276H118.38117c-6.09233,0-11.04275-4.95042-11.04275-11.04276V51.24764c0-6.09229,4.95042-11.04271,11.04275-11.04271h229.53356c6.09232,0,11.04276,4.95042,11.04276,11.04271v84.3193Z" fill="#3f3d56">
		</path>
	</g>
	<path d="M129.12827,77.33644h204c1.93298,0,3.5,1.567,3.5,3.5h0c0,1.933-1.56702,3.5-3.5,3.5H129.12827c-1.933,0-3.50001-1.567-3.50001-3.5h0c0-1.933,1.56701-3.5,3.50001-3.5Z" fill="#6c63ff">
	</path>
	<path d="M129.12827,100.33644h74c1.933,0,3.5,1.567,3.5,3.5h0c0,1.933-1.567,3.5-3.5,3.5h-74c-1.933,0-3.50001-1.567-3.50001-3.5h0c0-1.933,1.56701-3.5,3.50001-3.5Z" fill="#6c63ff">
	</path>
	<path d="M574.58105,66.64351h-140c-2.20557,0-4-1.79443-4-4s1.79443-4,4-4h140c2.20557,0,4,1.79443,4,4s-1.79443,4-4,4Z" fill="#e6e6e6">
	</path>
	<path d="M601.12152,153.39157h-195.08105v-1.00002c64.23267,9.85074,129.32495,9.04028,195.08105,0v1.00002Z" fill="#e6e6e6">
	</path>
	<path d="M574.58105,117.64351h-140c-2.20557,0-4-1.79443-4-4s1.79443-4,4-4h140c2.20557,0,4,1.79443,4,4s-1.79443,4-4,4Z" fill="#e6e6e6">
	</path>
	<rect x="407.0405" y="166.39157" width="195.08109" height="1" fill="#e6e6e6">
	</rect>
	<path d="M574.58105,91.33644h-140c-2.20557,0-4-1.79443-4-4s1.79443-4,4-4h140c2.20557,0,4,1.79443,4,4s-1.79443,4-4,4Z" fill="#e6e6e6">
	</path>
	<path d="M602.12152,180.39155c-67.33704-4.58035-132.73181-5.30966-195.08105,0v-.99998h195.08105v.99998Z" fill="#e6e6e6">
	</path>
	<g>
		<path d="M332.89294,164.11848l-8.22992-3.89856c3.37555,4.71082,6.28418,12.06805,7.84137,17.92249,2.63654-5.45343,6.88672-12.1261,11.09375-16.11194l-8.69812,2.23767c5.35974-26.26794,25.5191-45.12573,48.60437-45.12573v-2c-24.11316,0-45.13898,19.64758-50.61145,46.97607Z" fill="#3f3d56">
		</path>
		<path d="M370.77213,204.14241h-52c-2.20557,0-4-1.79443-4-4s1.79443-4,4-4h52c2.20557,0,4,1.79443,4,4s-1.79443,4-4,4Z" fill="#6c63ff">
		</path>
	</g>
	<g>
		<circle cx="237.62827" cy="103.33644" r="14" fill="#6c63ff">
		</circle>
		<path d="M244.91019,95.13863c-.66711-.3902-1.68585-.18787-2.05231,.53815-1.66406,3.29657-3.32806,6.59314-4.99213,9.88977-1.34235-2.10291-3.05969-3.93909-5.05188-5.47809-.64166-.49567-1.68048-.09766-2.05231,.53809-.45319,.7749-.1051,1.55542,.53815,2.05231,2.32312,1.79462,4.11456,4.20673,5.32074,6.86884,.4585,1.01202,2.11182,.94812,2.59039,0,2.07916-4.11896,4.15833-8.23785,6.23743-12.35675,.36493-.7229,.19104-1.62585-.53809-2.05231v-.00002Z" fill="#fff">
		</path>
	</g>
	<g>
		<circle cx="405.62827" cy="62.33644" r="14" fill="#6c63ff">
		</circle>
		<path d="M412.91019,54.13863c-.66711-.3902-1.68585-.18787-2.05231,.53815-1.66406,3.29657-3.32806,6.59314-4.99213,9.88977-1.34235-2.10291-3.05969-3.93909-5.05188-5.47809-.64166-.49567-1.68048-.09766-2.05231,.53809-.45319,.7749-.1051,1.55542,.53815,2.05231,2.32312,1.79462,4.11456,4.20673,5.32074,6.86884,.4585,1.01202,2.11182,.94812,2.59039,0,2.07916-4.11896,4.15833-8.23785,6.23743-12.35675,.36493-.7229,.19104-1.62585-.53809-2.05231v-.00002Z" fill="#fff">
		</path>
	</g>
	<g>
		<circle cx="606.62823" cy="85.33644" r="14" fill="#6c63ff">
		</circle>
		<path d="M613.91016,77.13863c-.66711-.3902-1.68585-.18787-2.05231,.53815-1.66406,3.29657-3.32806,6.59314-4.99213,9.88977-1.34235-2.10291-3.05969-3.93909-5.05188-5.47809-.64166-.49567-1.68048-.09766-2.05231,.53809-.45319,.7749-.1051,1.55542,.53815,2.05231,2.32312,1.79462,4.11456,4.20673,5.32074,6.86884,.4585,1.01202,2.11182,.94812,2.59039,0,2.07916-4.11896,4.15833-8.23785,6.23743-12.35675,.36493-.7229,.19104-1.62585-.53809-2.05231v-.00002Z" fill="#fff">
		</path>
	</g>
	<g>
		<path d="M292.84421,172.91697h-33.72141c-2.09369,0-3.79697-1.70328-3.79697-3.79697-4.45851-13.03165-4.37045-25.80093,0-38.32306,0-2.09367,1.70328-3.79696,3.79697-3.79696h33.72144c2.09369,0,3.79697,1.70329,3.79697,3.79696v38.32306c0,2.09367-1.70328,3.79697-3.79697,3.79697h-.00003Z" fill="#e6e6e6">
		</path>
		<path d="M266.3479,128.13128c-5.46252,0-9.89078,4.42825-9.89078,9.89076v30.28487c0,1.92125,1.5575,3.47874,3.47873,3.47874h18.64801c9.34796,0,16.92596-7.578,16.92596-16.92596v-23.24966c0-1.92125-1.5575-3.47874-3.47873-3.47874h-25.6832Z" fill="#fff">
		</path>
		<g>
			<path d="M283.83679,139.26817h-15.78793c-.39804,0-.72189-.32387-.72189-.72189s.32388-.72174,.72189-.72174h15.78793c.39804,0,.72174,.32372,.72174,.72174s-.32373,.72189-.72174,.72189Z" fill="#e6e6e6">
			</path>
			<path d="M283.83679,154.6607h-15.78793c-.39804,0-.72189-.32387-.72189-.72189s.32388-.72174,.72189-.72174h15.78793c.39804,0,.72174,.32372,.72174,.72174s-.32373,.72189-.72174,.72189Z" fill="#e6e6e6">
			</path>
			<path d="M292.30878,146.96948h-32.73184c-.39804,0-.72189-.32387-.72189-.72189s.32388-.72174,.72189-.72174h32.73184c.39804,0,.72174,.32372,.72174,.72174s-.32373,.72189-.72174,.72189Z" fill="#e6e6e6">
			</path>
		</g>
		<path d="M292.69479,160.91931h-13.65784c-.39804,0-.72189-.32387-.72189-.72189s.32388-.72174,.72189-.72174h13.65784c.39804,0,.72174,.32372,.72174,.72174s-.32373,.72189-.72174,.72189Z" fill="#e6e6e6">
		</path>
	</g>
	<g>
		<path d="M157.84421,45.91698h-33.72142c-2.09368,0-3.79696-1.70328-3.79696-3.79696-4.45851-13.03165-4.37046-25.80093,0-38.32306,0-2.09368,1.70329-3.79696,3.79696-3.79696h33.72142c2.09367,0,3.79697,1.70328,3.79697,3.79696V42.12002c0,2.09368-1.70328,3.79696-3.79697,3.79696Z" fill="#e6e6e6">
		</path>
		<path d="M131.34789,1.13128c-5.46252,0-9.89077,4.42825-9.89077,9.89076v30.28487c0,1.92125,1.55748,3.47874,3.47874,3.47874h18.64799c9.34795,0,16.92596-7.57801,16.92596-16.92596V4.61002c0-1.92125-1.55748-3.47874-3.47874-3.47874h-25.68318Z" fill="#fff">
		</path>
		<g>
			<path d="M148.83681,12.26817h-15.78792c-.39803,0-.72189-.32387-.72189-.72189s.32387-.72174,.72189-.72174h15.78792c.39803,0,.72174,.32372,.72174,.72174s-.32372,.72189-.72174,.72189Z" fill="#e6e6e6">
			</path>
			<path d="M148.83681,27.66071h-15.78792c-.39803,0-.72189-.32387-.72189-.72189s.32387-.72174,.72189-.72174h15.78792c.39803,0,.72174,.32372,.72174,.72174s-.32372,.72189-.72174,.72189Z" fill="#e6e6e6">
			</path>
			<path d="M157.30878,19.96949h-32.73185c-.39803,0-.72189-.32387-.72189-.72189s.32387-.72174,.72189-.72174h32.73185c.39803,0,.72174,.32372,.72174,.72174s-.32372,.72189-.72174,.72189Z" fill="#e6e6e6">
			</path>
		</g>
		<path d="M157.69479,33.91931h-13.65784c-.39803,0-.72189-.32387-.72189-.72189s.32387-.72174,.72189-.72174h13.65784c.39803,0,.72174,.32372,.72174,.72174s-.32372,.72189-.72174,.72189Z" fill="#e6e6e6">
		</path>
	</g>
	<path d="M167.55135,366.84021c2.06592,.12936,3.20769-2.43738,1.64468-3.93332l-.1555-.61819c.02048-.0495,.04105-.09897,.06178-.14838,2.08923-4.98181,9.16992-4.94742,11.24139,.04178,1.83859,4.42816,4.17941,8.86389,4.75578,13.54593,.25838,2.0668,.14214,4.17236-.31648,6.20047,4.30807-9.41058,6.57515-19.68661,6.57515-30.02078,0-2.59653-.14214-5.19302-.43275-7.78296-.239-2.11853-.56839-4.22409-.99471-6.31033-2.30576-11.27719-7.29852-22.01825-14.50012-30.98962-3.46198-1.89249-6.34906-4.85065-8.09296-8.39651-.6265-1.2789-1.11739-2.65463-1.34991-4.05618,.39398,.05167,1.48557-5.94867,1.18842-6.3168,.54906-.83316,1.53178-1.24734,2.13144-2.06033,2.98232-4.0434,7.0912-3.3374,9.23621,2.15726,4.58224,2.31265,4.62659,6.14807,1.81496,9.83682-1.78877,2.34683-2.03456,5.52234-3.60408,8.03479,.16151,.2067,.32944,.40695,.49091,.61365,2.96106,3.79788,5.52208,7.88004,7.68105,12.16858-.61017-4.7662,.29066-10.50821,1.82642-14.20959,1.74818-4.21732,5.02492-7.76913,7.91045-11.41501,3.466-4.37924,10.57336-2.46805,11.18401,3.08331,.00591,.05374,.01166,.10745,.0173,.16119-.4286,.24179-.8485,.49866-1.25864,.76993-2.33949,1.54724-1.53096,5.17386,1.24107,5.60175l.06277,.00967c-.15503,1.54367-.41985,3.07443-.80734,4.57938,3.7018,14.3158-4.29012,19.52991-15.70148,19.76413-.25191,.12915-.49738,.25833-.74928,.3811,1.15617,3.25525,2.07982,6.59448,2.7644,9.97891,.61359,2.99042,1.03992,6.01318,1.27885,9.04889,.29715,3.83005,.27129,7.6796-.05168,11.50323l.01939-.13562c.82024-4.21115,3.1067-8.14462,6.42661-10.87027,4.94562-4.06265,11.93282-5.55869,17.26826-8.82425,2.56833-1.57196,5.85945,.45944,5.41121,3.43707l-.02182,.14261c-.79443,.32288-1.56947,.69754-2.31871,1.11734-.4286,.24185-.84848,.49866-1.25864,.76993-2.33949,1.5473-1.53096,5.17392,1.24107,5.60181l.06282,.00964c.0452,.00647,.08397,.01294,.1291,.01944-1.36282,3.23581-3.26167,6.23923-5.63853,8.82922-2.31464,12.49713-12.25603,13.68283-22.89021,10.04355h-.00648c-1.16258,5.06378-2.86128,10.01126-5.0444,14.7262h-18.02019c-.06464-.20023-.12274-.40692-.18089-.60718,1.6664,.10342,3.3457,.0065,4.98628-.29703-1.33701-1.64059-2.67397-3.2941-4.01097-4.93463-.03229-.03229-.05817-.06461-.08397-.09689-.67818-.8396-1.36282-1.67282-2.04099-2.51245l-.00037-.00101c-.04245-2.57755,.26653-5.14661,.87875-7.63983l.00056-.00034v-.00006Z" fill="#f2f2f2">
	</path>
</svg>
